# xmcd
#
# Track frame offsets: 
#        150
#        27167
#        59315
#        99424
#        124679
#        156465
#        193855
#        221144
#        254542
#        271328
#        289400
#        305908
#        334038
#
# Disc length: 4683 seconds
#
# Revision: 0
# Processed by: cddbd v1.5.2PL0 Copyright (c) Steve Scherf et al.
# Submitted via: ExactAudioCopy v1.0b3
#
DISCID=cf12490d
DTITLE=Various Artist - Hardstyle Bass Vol. 1 - CD 1
DYEAR=1900
DGENRE=
TTITLE0=DJ Marcky - The Force (Original Mix)
TTITLE1=A-Lusion Feat. MC Villian - Get Smacked
TTITLE2=D.E.A.D. Man and Der Prediger - Gimme Wuazzzzaaaaaa
TTITLE3=DJ Zany - Widowmaker
TTITLE4=Showtek Vs. Gizmo - 3 The Hard Way
TTITLE5=Smashing Guys - Darkness (Zatox Mix)
TTITLE6=Deepack and The Prophet - Stampuh!
TTITLE7=Da Blaze - Freestyle (Zatox Rmx)
TTITLE8=Vorwerk - Cambodia (Radio Edit)
TTITLE9=Headhunterz - Aiming For Ur Brain
TTITLE10=2 Brothers Of Hardstyle - Cozmick Kick (Original Mix Edit)
TTITLE11=Project Deviate - Flash!
TTITLE12=DJ Isaac and DJ Zany - Desire
EXTD=
EXTT0=
EXTT1=
EXTT2=
EXTT3=
EXTT4=
EXTT5=
EXTT6=
EXTT7=
EXTT8=
EXTT9=
EXTT10=
EXTT11=
EXTT12=
PLAYORDER=
